<svg xmlns="http://www.w3.org/2000/svg" version="1.1" xmlns:xlink="http://www.w3.org/1999/xlink" xmlns:svgjs="http://svgjs.dev/svgjs" width="1000" height="1000" viewBox="0 0 1000 1000"><rect width="1000" height="1000" fill="#ffffff"></rect><g transform="matrix(0.7,0,0,0.7,149.57575757575756,377.2487224954932)"><svg viewBox="0 0 396 139" data-background-color="#ffffff" preserveAspectRatio="xMidYMid meet" height="351" width="1000" xmlns="http://www.w3.org/2000/svg" xmlns:xlink="http://www.w3.org/1999/xlink"><g id="tight-bounds" transform="matrix(1,0,0,1,0.2400000000000091,-0.05585033322574873)"><svg viewBox="0 0 395.52 139.1117006664515" height="139.1117006664515" width="395.52"><g><svg viewBox="0 0 694.9630479969753 244.43135999999998" height="139.1117006664515" width="395.52"><g transform="matrix(1,0,0,1,0,75.6106138374291)"><svg viewBox="0 0 395.52 93.21013232514177" height="93.21013232514177" width="395.52"><g><svg viewBox="0 0 395.52 93.21013232514177" height="93.21013232514177" width="395.52"><g><svg viewBox="0 0 395.52 93.21013232514177" height="93.21013232514177" width="395.52"><g transform="matrix(1,0,0,1,0,0)"><svg width="395.52" viewBox="3.8299999237060547 -36.040000915527344 154.97000122070312 36.53000259399414" height="93.21013232514177" data-palette-color="#c1233c"><path d="M3.83-35.55L9.59-35.55 18.87-6.54 28.15-35.55 33.91-35.55 33.91 0 29.44 0 29.44-13.84 29.86-27.71 20.56 0 17.14 0 7.89-27.61 8.3-13.84 8.3 0 3.83 0 3.83-35.55ZM61.42 0L58.62-9.28 46.6-9.28 43.85 0 39.26 0 50.71-35.55 54.54-35.55 66.01 0 61.42 0ZM52.61-29.3L47.78-13.13 57.47-13.13 52.61-29.3ZM82.49-13.92L75.31-13.92 75.31 0 70.84 0 70.84-35.55 82.17-35.55Q87.13-35.55 89.96-32.58 92.79-29.61 92.79-24.68L92.79-24.68Q92.79-19.56 90.1-16.78 87.4-14.01 82.49-13.92L82.49-13.92ZM75.31-31.69L75.31-17.75 82.17-17.75Q85.15-17.75 86.74-19.53 88.33-21.31 88.33-24.63L88.33-24.63Q88.33-27.83 86.69-29.76 85.05-31.69 82.2-31.69L82.2-31.69 75.31-31.69ZM103.22-35.55L103.22 0 98.75 0 98.75-35.55 103.22-35.55ZM131.12-35.55L131.12-31.69 121.77-31.69 121.77 0 117.3 0 117.3-31.69 107.97-31.69 107.97-35.55 131.12-35.55ZM158.8-21.12L158.8-14.65Q158.8-7.37 155.7-3.44 152.6 0.49 146.89 0.49L146.89 0.49Q141.39 0.49 138.21-3.33 135.02-7.15 134.9-14.14L134.9-14.14 134.9-20.83Q134.9-27.95 138.05-31.99 141.2-36.04 146.84-36.04L146.84-36.04Q152.45-36.04 155.59-32.17 158.73-28.3 158.8-21.12L158.8-21.12ZM154.33-14.21L154.33-20.87Q154.33-26.51 152.49-29.26 150.65-32.01 146.84-32.01L146.84-32.01Q143.15-32.01 141.26-29.22 139.37-26.44 139.34-21.02L139.34-21.02 139.34-14.65Q139.34-9.2 141.24-6.35 143.13-3.49 146.89-3.49 150.65-3.49 152.45-6.13 154.26-8.76 154.33-14.21L154.33-14.21Z" opacity="1" transform="matrix(1,0,0,1,0,0)" fill="#c1233c" class="undefined-text-0" data-fill-palette-color="primary" id="text-0"></path></svg></g></svg></g></svg></g></svg></g><g transform="matrix(1,0,0,1,450.5316879969754,0)"><svg viewBox="0 0 244.43135999999998 244.43135999999998" height="244.43135999999998" width="244.43135999999998"><g><svg viewBox="0 0 244.43135999999998 244.43135999999998" height="244.43135999999998" width="244.43135999999998"><g transform="matrix(1,0,0,1,71.2075757399391,64.60265593644992)"><svg viewBox="0 0 102.0162085201218 115.22604812710014" height="115.22604812710014" width="102.0162085201218"><g><svg xmlns="http://www.w3.org/2000/svg" data-name="Glyph Icon" viewBox="7.210000038146973 4 49.58000183105469 56" x="0" y="0" height="115.22604812710014" width="102.0162085201218" class="icon-a-0" data-fill-palette-color="accent" id="a-0"><path d="M49.13 20.84l-16-9.26V4L55.7 17.05ZM32 50.52L16 41.26V22.74l16-9.26 16 9.26V41.26ZM30.91 11.58l-16 9.26L8.3 17.05 30.91 4ZM13.77 22.74V41.26L7.21 45.05V19Zm1.1 20.42l16 9.26V60L8.3 47Zm18.22 9.26l16-9.26L55.7 47 33.09 60ZM50.23 41.26V22.74L56.79 19v26.1Z" fill="#d11c19" data-fill-palette-color="accent"></path></svg></g></svg></g><path d="M1.573 88.794L3.128 84.669 26.405 85.856 8.137 71.381 9.695 67.247 35.159 76.846 33.952 80.045 24.033 76.306 14.215 72.271 31.551 86.416 30.629 88.86 8.347 88.038 18.323 91.454 28.242 95.193 27.036 98.392ZM68.156 42.189L62.121 37.875 54.833 43.488 57.497 50.4 54.716 52.542 45.053 25.635 47.378 23.844 70.936 40.047ZM49.121 28.536L53.741 40.599 59.622 36.069ZM107.104 16.442L101.689 17.389 103.525 27.881 100.157 28.47 95.467 1.665 104.011 0.17C106.501-0.266 108.589 0.137 110.274 1.378 111.959 2.619 113.018 4.481 113.453 6.965V6.965C113.904 9.542 113.572 11.644 112.458 13.273 111.343 14.901 109.559 15.958 107.104 16.442ZM99.344 3.987L101.183 14.498 106.36 13.592C107.857 13.33 108.924 12.683 109.563 11.65 110.206 10.609 110.382 9.253 110.09 7.584V7.584C109.81 5.981 109.17 4.766 108.172 3.937 107.182 3.114 105.971 2.827 104.54 3.077V3.077ZM159.615 3.934L152.677 30.247 149.371 29.375 156.309 3.062ZM212.109 35.403L210.196 37.656 204.738 33.02 189.034 51.507 186.428 49.294 202.132 30.806 196.69 26.183 198.603 23.931ZM233.765 92.256L229.181 94.131C225.746 95.537 222.798 95.886 220.336 95.178 217.883 94.474 216.104 92.772 214.999 90.071V90.071C213.937 87.476 214.002 85.059 215.193 82.821 216.382 80.577 218.614 78.752 221.889 77.346V77.346L226.632 75.406C229.998 74.029 232.938 73.694 235.451 74.402 237.97 75.108 239.775 76.793 240.865 79.456V79.456C241.949 82.107 241.88 84.548 240.656 86.778 239.438 89.005 237.141 90.831 233.765 92.256ZM227.569 91.096L232.293 89.164C234.957 88.074 236.76 86.828 237.705 85.424 238.643 84.023 238.744 82.424 238.008 80.625V80.625C237.295 78.882 236.099 77.832 234.419 77.473 232.742 77.12 230.619 77.462 228.049 78.499V78.499L223.541 80.343C220.97 81.395 219.192 82.642 218.206 84.084 217.222 85.533 217.093 87.144 217.818 88.918 218.547 90.698 219.707 91.759 221.301 92.103 222.894 92.446 224.984 92.111 227.569 91.096ZM33.806 151.314L35.388 155.492 16.884 170.198 40.488 168.962 42.07 173.141 16.271 182.908 15.043 179.663 25.089 175.86 35.268 172.351 12.604 173.221 11.665 170.74 29.166 156.435 19.282 160.522 9.236 164.326 8.008 161.081ZM56.002 226.355L58.657 219.316 51.264 213.642 45.183 218.054 42.359 215.886 66.201 199.411 68.562 201.222 58.834 228.529ZM64.416 204.156L53.807 211.818 59.777 216.399ZM107.472 234.741L101.987 233.788 100.138 244.431 96.72 243.838 101.441 216.659 110.106 218.164C112.63 218.603 114.483 219.703 115.665 221.464 116.847 223.225 117.219 225.365 116.782 227.882V227.882C116.328 230.492 115.29 232.387 113.665 233.565 112.042 234.737 109.978 235.129 107.472 234.741ZM104.347 220.204L102.496 230.857 107.743 231.768C109.26 232.032 110.502 231.78 111.468 231.013 112.433 230.246 113.063 229.017 113.357 227.328V227.328C113.64 225.698 113.45 224.317 112.786 223.185 112.122 222.06 111.061 221.37 109.603 221.117V221.117ZM150.893 214.993L157.925 241.667 154.57 242.551 147.538 215.877ZM189.835 190.578L191.772 192.863 186.239 197.551 202.135 216.313 199.488 218.555 183.592 199.794 178.074 204.469 176.138 202.184ZM222.474 155.4L227.119 157.311C230.602 158.743 232.976 160.588 234.243 162.847 235.519 165.102 235.594 167.597 234.468 170.334V170.334C233.387 172.964 231.618 174.665 229.163 175.437 226.708 176.209 223.797 175.934 220.428 174.614V174.614L215.633 172.643C212.219 171.239 209.855 169.386 208.54 167.086 207.224 164.786 207.122 162.286 208.232 159.587V159.587C209.337 156.901 211.125 155.186 213.597 154.443 216.067 153.707 219.026 154.026 222.474 155.4ZM226.117 160.65L221.331 158.682C218.632 157.572 216.445 157.189 214.77 157.532 213.088 157.873 211.873 158.954 211.124 160.776V160.776C210.4 162.536 210.52 164.145 211.483 165.603 212.443 167.052 214.217 168.316 216.805 169.395V169.395L221.376 171.275C223.982 172.346 226.154 172.713 227.893 172.373 229.628 172.026 230.866 170.953 231.605 169.156 232.344 167.359 232.263 165.77 231.362 164.389 230.455 163.005 228.707 161.759 226.117 160.65ZM2.451 126.121C2.451 120.301 7.169 115.583 12.989 115.583 18.809 115.583 23.527 120.301 23.527 126.121 23.527 131.94 18.809 136.658 12.989 136.658 7.169 136.658 2.451 131.94 2.451 126.121ZM221.783 126.121C221.783 120.301 226.501 115.583 232.321 115.583 238.141 115.583 242.858 120.301 242.858 126.121 242.858 131.94 238.141 136.658 232.321 136.658 226.501 136.658 221.783 131.94 221.783 126.121Z" fill="#d11c19" data-fill-palette-color="accent"></path></svg></g></svg></g></svg></g><defs></defs></svg><rect width="395.52" height="139.1117006664515" fill="none" stroke="none" visibility="hidden"></rect></g></svg></g></svg>